{
	"patcher" : 	{
		"fileversion" : 1,
		"appversion" : 		{
			"major" : 7,
			"minor" : 3,
			"revision" : 5,
			"architecture" : "x64",
			"modernui" : 1
		}
,
		"openrect" : [ 50.0, 50.0, 433.0, 364.3 ],
		"bgcolor" : [ 0.239216, 0.254902, 0.278431, 1.0 ],
		"bglocked" : 0,
		"openinpresentation" : 1,
		"default_fontsize" : 12.0,
		"default_fontface" : 0,
		"default_fontname" : "Arial",
		"gridonopen" : 1,
		"gridsize" : [ 15.0, 15.0 ],
		"gridsnaponopen" : 1,
		"objectsnaponopen" : 1,
		"statusbarvisible" : 2,
		"toolbarvisible" : 0,
		"lefttoolbarpinned" : 0,
		"toptoolbarpinned" : 0,
		"righttoolbarpinned" : 0,
		"bottomtoolbarpinned" : 0,
		"toolbars_unpinned_last_save" : 0,
		"tallnewobj" : 0,
		"boxanimatetime" : 200,
		"enablehscroll" : 1,
		"enablevscroll" : 1,
		"devicewidth" : 0.0,
		"description" : "",
		"digest" : "",
		"tags" : "",
		"style" : "",
		"subpatcher_template" : "",
		"boxes" : [ 			{
				"box" : 				{
					"id" : "obj-19",
					"maxclass" : "newobj",
					"numinlets" : 1,
					"numoutlets" : 1,
					"outlettype" : [ "" ],
					"patching_rect" : [ 552.0, 903.0, 149.0, 22.0 ],
					"style" : "",
					"text" : "prepend python launch.py"
				}

			}
, 			{
				"box" : 				{
					"id" : "obj-17",
					"maxclass" : "message",
					"numinlets" : 2,
					"numoutlets" : 1,
					"outlettype" : [ "" ],
					"patching_rect" : [ 501.0, 90.0, 29.5, 22.0 ],
					"style" : "",
					"text" : "3"
				}

			}
, 			{
				"box" : 				{
					"id" : "obj-18",
					"maxclass" : "message",
					"numinlets" : 2,
					"numoutlets" : 1,
					"outlettype" : [ "" ],
					"patching_rect" : [ 373.5, 90.0, 29.5, 22.0 ],
					"style" : "",
					"text" : "2"
				}

			}
, 			{
				"box" : 				{
					"id" : "obj-14",
					"maxclass" : "message",
					"numinlets" : 2,
					"numoutlets" : 1,
					"outlettype" : [ "" ],
					"patching_rect" : [ 245.5, 90.0, 29.5, 22.0 ],
					"style" : "",
					"text" : "1"
				}

			}
, 			{
				"box" : 				{
					"id" : "obj-9",
					"maxclass" : "message",
					"numinlets" : 2,
					"numoutlets" : 1,
					"outlettype" : [ "" ],
					"patching_rect" : [ 109.5, 90.0, 29.5, 22.0 ],
					"style" : "",
					"text" : "0"
				}

			}
, 			{
				"box" : 				{
					"id" : "obj-8",
					"maxclass" : "newobj",
					"numinlets" : 1,
					"numoutlets" : 1,
					"outlettype" : [ "bang" ],
					"patching_rect" : [ 109.5, 59.0, 60.0, 22.0 ],
					"style" : "",
					"text" : "loadbang"
				}

			}
, 			{
				"box" : 				{
					"bgfillcolor_angle" : 270.0,
					"bgfillcolor_autogradient" : 0.0,
					"bgfillcolor_color" : [ 0.290196, 0.309804, 0.301961, 1.0 ],
					"bgfillcolor_color1" : [ 0.376471, 0.384314, 0.4, 0.0 ],
					"bgfillcolor_color2" : [ 0.290196, 0.309804, 0.301961, 0.0 ],
					"bgfillcolor_proportion" : 0.39,
					"bgfillcolor_type" : "gradient",
					"fontname" : "Helvetica Neue",
					"fontsize" : 14.0,
					"hint" : "Type of hand activation",
					"id" : "obj-7",
					"items" : [ "classical", ",", "jazz", ",", "funk", ",", "pop", ",", "rock", ",", "techno" ],
					"maxclass" : "umenu",
					"numinlets" : 1,
					"numoutlets" : 3,
					"outlettype" : [ "int", "", "" ],
					"parameter_enable" : 0,
					"patching_rect" : [ 501.0, 120.644531, 100.0, 25.0 ],
					"presentation" : 1,
					"presentation_rect" : [ 453.374695, 184.833618, 103.5, 25.0 ],
					"style" : ""
				}

			}
, 			{
				"box" : 				{
					"bgfillcolor_angle" : 270.0,
					"bgfillcolor_autogradient" : 0.0,
					"bgfillcolor_color" : [ 0.290196, 0.309804, 0.301961, 1.0 ],
					"bgfillcolor_color1" : [ 0.376471, 0.384314, 0.4, 0.0 ],
					"bgfillcolor_color2" : [ 0.290196, 0.309804, 0.301961, 0.0 ],
					"bgfillcolor_proportion" : 0.39,
					"bgfillcolor_type" : "gradient",
					"fontname" : "Helvetica Neue",
					"fontsize" : 14.0,
					"hint" : "Type of hand activation",
					"id" : "obj-5",
					"items" : [ "classical", ",", "jazz", ",", "funk", ",", "pop", ",", "rock", ",", "techno" ],
					"maxclass" : "umenu",
					"numinlets" : 1,
					"numoutlets" : 3,
					"outlettype" : [ "int", "", "" ],
					"parameter_enable" : 0,
					"patching_rect" : [ 373.5, 120.644531, 100.0, 25.0 ],
					"presentation" : 1,
					"presentation_rect" : [ 454.374695, 151.833618, 103.5, 25.0 ],
					"style" : ""
				}

			}
, 			{
				"box" : 				{
					"id" : "obj-3",
					"maxclass" : "newobj",
					"numinlets" : 4,
					"numoutlets" : 1,
					"outlettype" : [ "" ],
					"patching_rect" : [ 167.0, 171.0, 155.0, 22.0 ],
					"style" : "",
					"text" : "pak classical jazz rock funk"
				}

			}
, 			{
				"box" : 				{
					"bgfillcolor_angle" : 270.0,
					"bgfillcolor_autogradient" : 0.0,
					"bgfillcolor_color" : [ 0.290196, 0.309804, 0.301961, 1.0 ],
					"bgfillcolor_color1" : [ 0.376471, 0.384314, 0.4, 0.0 ],
					"bgfillcolor_color2" : [ 0.290196, 0.309804, 0.301961, 0.0 ],
					"bgfillcolor_proportion" : 0.39,
					"bgfillcolor_type" : "gradient",
					"fontname" : "Helvetica Neue",
					"fontsize" : 14.0,
					"hint" : "Type of hand activation",
					"id" : "obj-2",
					"items" : [ "classical", ",", "jazz", ",", "funk", ",", "pop", ",", "rock", ",", "techno" ],
					"maxclass" : "umenu",
					"numinlets" : 1,
					"numoutlets" : 3,
					"outlettype" : [ "int", "", "" ],
					"parameter_enable" : 0,
					"patching_rect" : [ 245.5, 120.644531, 100.0, 25.0 ],
					"presentation" : 1,
					"presentation_rect" : [ 454.374695, 119.833618, 103.5, 25.0 ],
					"style" : ""
				}

			}
, 			{
				"box" : 				{
					"id" : "obj-1",
					"linecount" : 2,
					"maxclass" : "message",
					"numinlets" : 2,
					"numoutlets" : 1,
					"outlettype" : [ "" ],
					"patching_rect" : [ 157.0, 22.0, 1277.0, 35.0 ],
					"style" : "",
					"text" : "clear, add_point name $1 coords -0.8 -0.8 inner_radius 0.075 outer_radius 0.6, add_point name jazz coords -0.8 0.8 inner_radius 0.075 outer_radius 0.6, add_point name rock coords 0.8 -0.8 inner_radius 0.075 outer_radius 0.6, add_point name funk coords 0.8 0.8 inner_radius 0.075 outer_radius 0.6"
				}

			}
, 			{
				"box" : 				{
					"bgfillcolor_angle" : 270.0,
					"bgfillcolor_autogradient" : 0.0,
					"bgfillcolor_color" : [ 0.290196, 0.309804, 0.301961, 1.0 ],
					"bgfillcolor_color1" : [ 0.376471, 0.384314, 0.4, 0.0 ],
					"bgfillcolor_color2" : [ 0.290196, 0.309804, 0.301961, 0.0 ],
					"bgfillcolor_proportion" : 0.39,
					"bgfillcolor_type" : "gradient",
					"fontname" : "Helvetica Neue",
					"fontsize" : 14.0,
					"hint" : "Type of hand activation",
					"id" : "obj-174",
					"items" : [ "classical", ",", "jazz", ",", "funk", ",", "pop", ",", "rock", ",", "techno" ],
					"maxclass" : "umenu",
					"numinlets" : 1,
					"numoutlets" : 3,
					"outlettype" : [ "int", "", "" ],
					"parameter_enable" : 0,
					"patching_rect" : [ 126.5, 120.644531, 100.0, 25.0 ],
					"presentation" : 1,
					"presentation_rect" : [ 453.374695, 87.833618, 103.5, 25.0 ],
					"style" : ""
				}

			}
, 			{
				"box" : 				{
					"angle" : 0.0,
					"bgcolor" : [ 0.094118, 0.113725, 0.137255, 0.21 ],
					"border" : 1,
					"bordercolor" : [ 0.415686, 0.454902, 0.52549, 1.0 ],
					"id" : "obj-15",
					"maxclass" : "panel",
					"mode" : 0,
					"numinlets" : 1,
					"numoutlets" : 0,
					"patching_rect" : [ 1238.0, 932.0, 82.0, 88.0 ],
					"presentation" : 1,
					"presentation_rect" : [ 453.374695, 86.675842, 103.5, 29.31555 ],
					"proportion" : 0.39,
					"rounded" : 16,
					"style" : ""
				}

			}
, 			{
				"box" : 				{
					"id" : "obj-12",
					"maxclass" : "newobj",
					"numinlets" : 1,
					"numoutlets" : 0,
					"patching_rect" : [ 552.0, 952.0, 34.0, 22.0 ],
					"style" : "",
					"text" : "print"
				}

			}
, 			{
				"box" : 				{
					"id" : "obj-11",
					"maxclass" : "newobj",
					"numinlets" : 2,
					"numoutlets" : 2,
					"outlettype" : [ "", "" ],
					"patching_rect" : [ 552.0, 851.5, 63.0, 22.0 ],
					"style" : "",
					"text" : "zl group 8"
				}

			}
, 			{
				"box" : 				{
					"id" : "obj-10",
					"maxclass" : "newobj",
					"numinlets" : 2,
					"numoutlets" : 2,
					"outlettype" : [ "", "" ],
					"patching_rect" : [ 503.0, 811.5, 68.0, 22.0 ],
					"style" : "",
					"text" : "route done"
				}

			}
, 			{
				"box" : 				{
					"id" : "obj-6",
					"linecount" : 2,
					"maxclass" : "message",
					"numinlets" : 2,
					"numoutlets" : 1,
					"outlettype" : [ "" ],
					"patching_rect" : [ 167.0, 210.0, 1203.0, 35.0 ],
					"style" : "",
					"text" : "clear, add_point name $1 coords -0.8 -0.8 inner_radius 0.075 outer_radius 0.6, add_point name $2 coords -0.8 0.8 inner_radius 0.075 outer_radius 0.6, add_point name $3 coords 0.8 -0.8 inner_radius 0.075 outer_radius 0.6, add_point name $4 coords 0.8 0.8 inner_radius 0.075 outer_radius 0.6"
				}

			}
, 			{
				"box" : 				{
					"always_draw_circles" : 4294967297,
					"always_draw_labels" : 17179869185,
					"bordercolor" : [ 0.0, 0.0, 0.0, 0.0 ],
					"color" : [ 1.0, 1.0, 1.0, 1.0 ],
					"fontface" : 0,
					"fontname" : "Helvetica Neue",
					"fontsize" : 12.0,
					"id" : "obj-4",
					"line_width" : 0.0,
					"maxclass" : "rbfi",
					"numinlets" : 1,
					"numoutlets" : 5,
					"outlettype" : [ "", "", "", "", "" ],
					"parameter_enable" : 0,
					"patching_rect" : [ 503.0, 293.5, 500.0, 500.0 ],
					"presentation" : 1,
					"presentation_rect" : [ 20.0, 18.90625, 416.0625, 416.0625 ],
					"spaces" : [ "space", 4, -0.8, -0.8, "pop", 0.75, 0.375, 0.1875, 0.0, 2.214619, 20376.389757, 0.075, 0.6, 0, -0.8, 0.8, "funk", 0.75, 0.5625, 0.1875, 0.0, 2.214619, 20376.389757, 0.075, 0.6, 0, 0.8, -0.8, "classical", 0.75, 0.75, 0.1875, 0.0, 2.214619, 20376.389757, 0.075, 0.6, 0, 0.8, 0.8, "rock", 0.5625, 0.75, 0.1875, 0.0, 2.214619, 20376.389757, 0.075, 0.6, 0 ],
					"xmin" : -1.0,
					"ymin" : -1.0
				}

			}
, 			{
				"box" : 				{
					"id" : "obj-75",
					"linecolor" : [ 0.349151, 0.377564, 0.442529, 1.0 ],
					"maxclass" : "live.line",
					"numinlets" : 1,
					"numoutlets" : 0,
					"patching_rect" : [ 1282.333374, 845.0, 33.0, 63.0 ],
					"presentation" : 1,
					"presentation_rect" : [ 453.374695, 66.5, 101.5, 29.671814 ]
				}

			}
, 			{
				"box" : 				{
					"activebgcolor" : [ 0.0, 0.0, 0.0, 0.15 ],
					"activebgoncolor" : [ 0.792157, 0.219608, 0.133333, 1.0 ],
					"activetextcolor" : [ 1.0, 1.0, 1.0, 0.6 ],
					"activetextoncolor" : [ 1.0, 1.0, 1.0, 1.0 ],
					"annotation" : "Light to open the Encoders Editor",
					"automation" : "",
					"automationon" : "Doubled",
					"bgcolor" : [ 1.0, 1.0, 1.0, 0.2 ],
					"bgoncolor" : [ 1.0, 1.0, 1.0, 0.6 ],
					"bordercolor" : [ 1.0, 1.0, 1.0, 0.0 ],
					"focusbordercolor" : [ 1.0, 1.0, 1.0, 0.0 ],
					"fontface" : 0,
					"fontname" : "Helvetica Neue",
					"fontsize" : 12.0,
					"hint" : "Close this panel",
					"id" : "obj-28",
					"maxclass" : "live.text",
					"mode" : 0,
					"numinlets" : 1,
					"numoutlets" : 2,
					"outlettype" : [ "", "" ],
					"parameter_enable" : 1,
					"patching_rect" : [ 1076.5, 391.0, 85.0, 31.0 ],
					"presentation" : 1,
					"presentation_rect" : [ 452.874695, 406.96875, 101.0, 30.0 ],
					"rounded" : 16.0,
					"saved_attribute_attributes" : 					{
						"valueof" : 						{
							"parameter_longname" : "Map[6]",
							"parameter_shortname" : "Map",
							"parameter_type" : 2,
							"parameter_mmax" : 1.0,
							"parameter_enum" : [ "", "Doubled" ],
							"parameter_initial" : [ 0 ],
							"parameter_defer" : 1,
							"parameter_invisible" : 2,
							"parameter_annotation_name" : "Open"
						}

					}
,
					"text" : "Close",
					"textcolor" : [ 1.0, 1.0, 1.0, 0.6 ],
					"texton" : "Free",
					"varname" : "xy_close"
				}

			}
, 			{
				"box" : 				{
					"angle" : 0.0,
					"bgcolor" : [ 0.094118, 0.113725, 0.137255, 0.21 ],
					"border" : 1,
					"bordercolor" : [ 0.415686, 0.454902, 0.52549, 1.0 ],
					"id" : "obj-30",
					"maxclass" : "panel",
					"mode" : 0,
					"numinlets" : 1,
					"numoutlets" : 0,
					"patching_rect" : [ 1194.666626, 908.0, 120.0, 120.0 ],
					"presentation" : 1,
					"presentation_rect" : [ 452.874695, 407.96875, 101.0, 29.0 ],
					"proportion" : 0.39,
					"rounded" : 16,
					"style" : ""
				}

			}
, 			{
				"box" : 				{
					"activedialcolor" : [ 0.802765, 0.214107, 0.169615, 1.0 ],
					"activeneedlecolor" : [ 1.0, 1.0, 1.0, 1.0 ],
					"annotation" : "Sets the relative percentage of the unprocessed vs. processed input signal to be output.",
					"focusbordercolor" : [ 1.0, 1.0, 1.0, 1.0 ],
					"fontname" : "Helvetica Neue Light",
					"fontsize" : 16.0,
					"id" : "obj-13",
					"maxclass" : "live.dial",
					"numinlets" : 1,
					"numoutlets" : 2,
					"outlettype" : [ "", "float" ],
					"panelcolor" : [ 0.32549, 0.345098, 0.372549, 1.0 ],
					"parameter_enable" : 1,
					"patching_rect" : [ 1343.333374, 737.5, 44.0, 63.0 ],
					"presentation" : 1,
					"presentation_rect" : [ 609.0, 287.4375, 44.0, 63.0 ],
					"prototypename" : "wet/dry",
					"saved_attribute_attributes" : 					{
						"valueof" : 						{
							"parameter_linknames" : 1,
							"parameter_longname" : "xy_y",
							"parameter_shortname" : "y",
							"parameter_type" : 1,
							"parameter_mmax" : 32.0,
							"parameter_initial_enable" : 1,
							"parameter_initial" : [ 1.0 ],
							"parameter_unitstyle" : 0,
							"parameter_speedlim" : 0.0
						}

					}
,
					"textcolor" : [ 1.0, 1.0, 1.0, 1.0 ],
					"varname" : "xy_y"
				}

			}
, 			{
				"box" : 				{
					"bgcolor" : [ 0.866667, 0.866667, 0.866667, 0.0 ],
					"bgfillcolor_angle" : 270.0,
					"bgfillcolor_autogradient" : 0.79,
					"bgfillcolor_color" : [ 0.290196, 0.309804, 0.301961, 1.0 ],
					"bgfillcolor_color1" : [ 0.866667, 0.866667, 0.866667, 0.0 ],
					"bgfillcolor_color2" : [ 0.685, 0.685, 0.685, 1.0 ],
					"bgfillcolor_proportion" : 0.39,
					"bgfillcolor_type" : "gradient",
					"fontname" : "Helvetica Neue UltraLight",
					"fontsize" : 36.0,
					"gradient" : 0,
					"id" : "obj-27",
					"ignoreclick" : 1,
					"linecount" : 4,
					"maxclass" : "message",
					"numinlets" : 2,
					"numoutlets" : 1,
					"outlettype" : [ "" ],
					"patching_rect" : [ 1333.333374, 847.0, 49.0, 173.0 ],
					"presentation" : 1,
					"presentation_rect" : [ 447.874695, 9.4375, 114.0, 50.0 ],
					"style" : "",
					"text" : "melody",
					"textcolor" : [ 1.0, 1.0, 1.0, 0.3 ]
				}

			}
, 			{
				"box" : 				{
					"angle" : 0.0,
					"bgcolor" : [ 0.094118, 0.113725, 0.137255, 0.21 ],
					"border" : 1,
					"bordercolor" : [ 0.415686, 0.454902, 0.52549, 1.0 ],
					"id" : "obj-16",
					"maxclass" : "panel",
					"mode" : 0,
					"numinlets" : 1,
					"numoutlets" : 0,
					"patching_rect" : [ 1194.666626, 908.0, 120.0, 120.0 ],
					"presentation" : 1,
					"presentation_rect" : [ 15.374695, 14.4375, 427.0, 428.0 ],
					"proportion" : 0.39,
					"rounded" : 16,
					"style" : ""
				}

			}
, 			{
				"box" : 				{
					"angle" : 0.0,
					"bgcolor" : [ 0.094118, 0.113725, 0.137255, 0.21 ],
					"border" : 1,
					"bordercolor" : [ 0.415686, 0.454902, 0.52549, 1.0 ],
					"id" : "obj-22",
					"maxclass" : "panel",
					"mode" : 0,
					"numinlets" : 1,
					"numoutlets" : 0,
					"patching_rect" : [ 1283.0, 977.0, 82.0, 88.0 ],
					"presentation" : 1,
					"presentation_rect" : [ 453.374695, 183.833618, 103.5, 29.31555 ],
					"proportion" : 0.39,
					"rounded" : 16,
					"style" : ""
				}

			}
, 			{
				"box" : 				{
					"angle" : 0.0,
					"bgcolor" : [ 0.094118, 0.113725, 0.137255, 0.21 ],
					"border" : 1,
					"bordercolor" : [ 0.415686, 0.454902, 0.52549, 1.0 ],
					"id" : "obj-21",
					"maxclass" : "panel",
					"mode" : 0,
					"numinlets" : 1,
					"numoutlets" : 0,
					"patching_rect" : [ 1268.0, 962.0, 82.0, 88.0 ],
					"presentation" : 1,
					"presentation_rect" : [ 453.374695, 150.833618, 103.5, 29.31555 ],
					"proportion" : 0.39,
					"rounded" : 16,
					"style" : ""
				}

			}
, 			{
				"box" : 				{
					"angle" : 0.0,
					"bgcolor" : [ 0.094118, 0.113725, 0.137255, 0.21 ],
					"border" : 1,
					"bordercolor" : [ 0.415686, 0.454902, 0.52549, 1.0 ],
					"id" : "obj-20",
					"maxclass" : "panel",
					"mode" : 0,
					"numinlets" : 1,
					"numoutlets" : 0,
					"patching_rect" : [ 1253.0, 947.0, 82.0, 88.0 ],
					"presentation" : 1,
					"presentation_rect" : [ 453.374695, 118.991394, 103.5, 29.31555 ],
					"proportion" : 0.39,
					"rounded" : 16,
					"style" : ""
				}

			}
, 			{
				"box" : 				{
					"angle" : 0.0,
					"bgcolor" : [ 0.094118, 0.113725, 0.137255, 0.21 ],
					"border" : 1,
					"bordercolor" : [ 0.415686, 0.454902, 0.52549, 1.0 ],
					"id" : "obj-24",
					"maxclass" : "panel",
					"mode" : 0,
					"numinlets" : 1,
					"numoutlets" : 0,
					"patching_rect" : [ 1179.666626, 893.0, 120.0, 120.0 ],
					"presentation" : 1,
					"presentation_rect" : [ 5.374695, 4.4375, 560.5, 447.0 ],
					"proportion" : 0.39,
					"rounded" : 16,
					"style" : ""
				}

			}
 ],
		"lines" : [ 			{
				"patchline" : 				{
					"destination" : [ "obj-11", 0 ],
					"source" : [ "obj-10", 1 ]
				}

			}
, 			{
				"patchline" : 				{
					"destination" : [ "obj-19", 0 ],
					"source" : [ "obj-11", 0 ]
				}

			}
, 			{
				"patchline" : 				{
					"destination" : [ "obj-2", 0 ],
					"source" : [ "obj-14", 0 ]
				}

			}
, 			{
				"patchline" : 				{
					"destination" : [ "obj-7", 0 ],
					"source" : [ "obj-17", 0 ]
				}

			}
, 			{
				"patchline" : 				{
					"destination" : [ "obj-3", 0 ],
					"source" : [ "obj-174", 1 ]
				}

			}
, 			{
				"patchline" : 				{
					"destination" : [ "obj-5", 0 ],
					"source" : [ "obj-18", 0 ]
				}

			}
, 			{
				"patchline" : 				{
					"destination" : [ "obj-12", 0 ],
					"source" : [ "obj-19", 0 ]
				}

			}
, 			{
				"patchline" : 				{
					"destination" : [ "obj-3", 1 ],
					"source" : [ "obj-2", 1 ]
				}

			}
, 			{
				"patchline" : 				{
					"destination" : [ "obj-6", 0 ],
					"source" : [ "obj-3", 0 ]
				}

			}
, 			{
				"patchline" : 				{
					"destination" : [ "obj-10", 0 ],
					"source" : [ "obj-4", 0 ]
				}

			}
, 			{
				"patchline" : 				{
					"destination" : [ "obj-3", 2 ],
					"source" : [ "obj-5", 1 ]
				}

			}
, 			{
				"patchline" : 				{
					"destination" : [ "obj-4", 0 ],
					"source" : [ "obj-6", 0 ]
				}

			}
, 			{
				"patchline" : 				{
					"destination" : [ "obj-3", 3 ],
					"source" : [ "obj-7", 1 ]
				}

			}
, 			{
				"patchline" : 				{
					"destination" : [ "obj-14", 0 ],
					"order" : 2,
					"source" : [ "obj-8", 0 ]
				}

			}
, 			{
				"patchline" : 				{
					"destination" : [ "obj-17", 0 ],
					"order" : 0,
					"source" : [ "obj-8", 0 ]
				}

			}
, 			{
				"patchline" : 				{
					"destination" : [ "obj-18", 0 ],
					"order" : 1,
					"source" : [ "obj-8", 0 ]
				}

			}
, 			{
				"patchline" : 				{
					"destination" : [ "obj-9", 0 ],
					"order" : 3,
					"source" : [ "obj-8", 0 ]
				}

			}
, 			{
				"patchline" : 				{
					"destination" : [ "obj-174", 0 ],
					"source" : [ "obj-9", 0 ]
				}

			}
 ],
		"parameters" : 		{
			"obj-28" : [ "Map[6]", "Map", 0 ],
			"obj-13" : [ "xy_y", "y", 0 ]
		}
,
		"dependency_cache" : [ 			{
				"name" : "rbfi.mxo",
				"type" : "iLaX"
			}
 ],
		"autosave" : 0,
		"styles" : [ 			{
				"name" : "AudioStatus_Menu",
				"default" : 				{
					"bgfillcolor" : 					{
						"type" : "color",
						"color" : [ 0.294118, 0.313726, 0.337255, 1 ],
						"color1" : [ 0.454902, 0.462745, 0.482353, 0.0 ],
						"color2" : [ 0.290196, 0.309804, 0.301961, 1.0 ],
						"angle" : 270.0,
						"proportion" : 0.39,
						"autogradient" : 0
					}

				}
,
				"parentstyle" : "",
				"multi" : 0
			}
, 			{
				"name" : "BlueTextButtons",
				"default" : 				{
					"bgcolor" : [ 0.666206, 0.782298, 0.817138, 1.0 ]
				}
,
				"parentstyle" : "RedTextButtons",
				"multi" : 0
			}
, 			{
				"name" : "BlueTextButtons-1",
				"default" : 				{
					"accentcolor" : [ 0.25, 0.25, 0.25, 1.0 ],
					"bgcolor" : [ 0.538741, 0.764449, 0.877768, 1.0 ],
					"elementcolor" : [ 0.55, 0.55, 0.55, 1.0 ],
					"color" : [ 1.0, 1.0, 1.0, 1.0 ],
					"selectioncolor" : [ 0.1, 0.1, 0.1, 1.0 ],
					"fontname" : [ "Helvetica" ]
				}
,
				"parentstyle" : "",
				"multi" : 0
			}
, 			{
				"name" : "Luca",
				"default" : 				{
					"textcolor_inverse" : [ 0.239216, 0.254902, 0.278431, 1.0 ],
					"accentcolor" : [ 0.32549, 0.345098, 0.372549, 1.0 ],
					"bgcolor" : [ 0.904179, 0.895477, 0.842975, 0.56 ],
					"elementcolor" : [ 0.786675, 0.801885, 0.845022, 1.0 ],
					"color" : [ 0.475135, 0.293895, 0.251069, 1.0 ],
					"bgfillcolor" : 					{
						"type" : "gradient",
						"color" : [ 0.290196, 0.309804, 0.301961, 1.0 ],
						"color1" : [ 0.862745, 0.870588, 0.878431, 1.0 ],
						"color2" : [ 0.65098, 0.666667, 0.662745, 1.0 ],
						"angle" : 270.0,
						"proportion" : 0.39,
						"autogradient" : 0
					}
,
					"selectioncolor" : [ 0.720698, 0.16723, 0.080014, 1.0 ],
					"fontname" : [ "Open Sans Semibold" ]
				}
,
				"parentstyle" : "",
				"multi" : 0
			}
, 			{
				"name" : "RedTextButtons",
				"default" : 				{
					"accentcolor" : [ 0.25, 0.25, 0.25, 1.0 ],
					"bgcolor" : [ 0.843137, 0.733333, 0.729412, 1.0 ],
					"elementcolor" : [ 0.55, 0.55, 0.55, 1.0 ],
					"color" : [ 1.0, 1.0, 1.0, 1.0 ],
					"selectioncolor" : [ 0.1, 0.1, 0.1, 1.0 ],
					"fontname" : [ "Helvetica" ]
				}
,
				"parentstyle" : "",
				"multi" : 0
			}
, 			{
				"name" : "VioletTextButton",
				"default" : 				{
					"accentcolor" : [ 0.25, 0.25, 0.25, 1.0 ],
					"bgcolor" : [ 0.715377, 0.696413, 0.824482, 1.0 ],
					"elementcolor" : [ 0.55, 0.55, 0.55, 1.0 ],
					"color" : [ 1.0, 1.0, 1.0, 1.0 ],
					"selectioncolor" : [ 0.1, 0.1, 0.1, 1.0 ],
					"fontname" : [ "Helvetica" ]
				}
,
				"parentstyle" : "",
				"multi" : 0
			}
, 			{
				"name" : "dark-night-patch",
				"default" : 				{
					"patchlinecolor" : [ 0.439216, 0.74902, 0.254902, 0.898039 ],
					"accentcolor" : [ 0.952941, 0.564706, 0.098039, 1.0 ],
					"bgfillcolor" : 					{
						"type" : "gradient",
						"color1" : [ 0.376471, 0.384314, 0.4, 1.0 ],
						"color2" : [ 0.290196, 0.309804, 0.301961, 1.0 ],
						"color" : [ 0.290196, 0.309804, 0.301961, 1.0 ],
						"angle" : 270.0,
						"proportion" : 0.39
					}
,
					"textcolor" : [ 0.862745, 0.870588, 0.878431, 1.0 ]
				}
,
				"parentstyle" : "",
				"multi" : 0
			}
, 			{
				"name" : "jpatcher001",
				"parentstyle" : "",
				"multi" : 0
			}
, 			{
				"name" : "ksliderWhite",
				"default" : 				{
					"color" : [ 1.0, 1.0, 1.0, 1.0 ]
				}
,
				"parentstyle" : "",
				"multi" : 0
			}
, 			{
				"name" : "maty@multislider001",
				"parentstyle" : "multislider001",
				"multi" : 0
			}
, 			{
				"name" : "maty_jpatcher01",
				"default" : 				{
					"fontname" : [ "Helvetica Neue Thin" ]
				}
,
				"parentstyle" : "jpatcher001",
				"multi" : 0
			}
, 			{
				"name" : "maty_multislider01",
				"parentstyle" : "multislider001",
				"multi" : 0
			}
, 			{
				"name" : "multislider001",
				"default" : 				{
					"bgcolor" : [ 0.945827, 0.711942, 0.174445, 0.0 ],
					"color" : [ 0.0, 0.0, 0.0, 1.0 ]
				}
,
				"parentstyle" : "",
				"multi" : 0
			}
, 			{
				"name" : "newobjBlue-1",
				"default" : 				{
					"accentcolor" : [ 0.317647, 0.654902, 0.976471, 1.0 ]
				}
,
				"parentstyle" : "",
				"multi" : 0
			}
, 			{
				"name" : "newobjGreen-1",
				"default" : 				{
					"accentcolor" : [ 0.0, 0.533333, 0.168627, 1.0 ]
				}
,
				"parentstyle" : "",
				"multi" : 0
			}
, 			{
				"name" : "numberGold-1",
				"default" : 				{
					"accentcolor" : [ 0.764706, 0.592157, 0.101961, 1.0 ]
				}
,
				"parentstyle" : "",
				"multi" : 0
			}
 ]
	}

}
